Land_normalized_Motion_pl01
version=1
nRows=18
nColumns=43
inDegrees=yes
endheader
time		pelvis_tilt		pelvis_list		pelvis_rotation		pelvis_tx		pelvis_ty		pelvis_tz		hip_flexion_r		hip_adduction_r		hip_rotation_r		knee_angle_r		ankle_angle_r		subtalar_angle_r		mtp_angle_r		hip_flexion_l		hip_adduction_l		hip_rotation_l		knee_angle_l		ankle_angle_l		subtalar_angle_l		mtp_angle_l		lumbar_extension		lumbar_bending		lumbar_rotation		neck_flexion		neck_lateral_bending		neck_rotation		arm_flex_r		arm_add_r		arm_rot_r		elbow_flex_r		pro_sup_r		wrist_flex_r		wrist_dev_r		hand_finger_flex_r		arm_flex_l		arm_add_l		arm_rot_l		elbow_flex_l		pro_sup_l		wrist_flex_l		wrist_dev_l		hand_finger_flex_l		
4.374167		0.410370		3.606102		92.843863		-0.024378		0.631186		0.514183		59.387131		-2.990261		-2.796786		-94.646496		3.897138		-4.738852		33.282998		57.473783		-6.806652		-2.466844		-96.631335		27.408718		2.221389		24.209396		-39.700682		2.710547		8.065086		3.250849		4.701680		-8.657130		-3.495444		-22.927293		-20.844571		38.341560		121.707657		-20.140205		-9.368499		-34.895890		-22.573924		-17.641835		-18.102967		50.256018		148.244640		-26.599921		-2.400213		-30.902935		
4.376793		0.185292		3.419412		92.696707		-0.023780		0.623586		0.513316		60.914169		-2.895903		-2.276481		-96.611646		3.541422		-4.974112		33.314606		58.792845		-6.648476		-2.362425		-98.462523		26.759208		1.949772		24.030959		-40.180719		2.268443		8.043395		4.632914		4.863208		-8.746608		-1.681489		-23.076776		-20.528252		38.790835		121.716114		-20.305335		-9.590624		-34.934540		-20.274037		-17.759543		-17.613095		50.729300		148.560391		-26.915154		-2.450369		-30.955716		
4.379419		0.047071		3.562539		92.643326		-0.023371		0.616530		0.512202		62.026446		-2.836541		-1.916594		-98.540791		3.242591		-5.049153		33.331293		59.739915		-6.545156		-2.192376		-100.307971		26.547530		1.772292		23.955065		-40.871457		1.996337		7.991054		5.181154		4.996423		-8.813745		0.038496		-23.209534		-20.306756		39.381718		121.735356		-20.418197		-9.797414		-34.963597		-18.094292		-17.789709		-17.259663		51.420805		148.751089		-27.122331		-2.554094		-30.992668		
4.382045		-0.196610		3.504275		92.523572		-0.022806		0.609515		0.511178		63.403897		-2.750135		-1.393215		-100.419068		3.050597		-5.064326		33.354631		60.867471		-6.353968		-1.980367		-102.018255		25.767947		1.752425		23.828659		-41.474821		1.538343		7.943997		6.589165		5.222779		-8.981849		1.864868		-23.357171		-19.873167		39.819802		121.746845		-20.678173		-10.030669		-35.061740		-15.787367		-17.916662		-16.704061		51.994529		149.058657		-27.499867		-2.597787		-31.056231		
4.384672		-0.303643		3.791541		92.497147		-0.022447		0.602920		0.509942		64.336875		-2.676842		-1.051852		-102.262771		2.852093		-4.974948		33.363429		61.630526		-6.263005		-1.712248		-103.777315		25.641643		1.704543		23.802806		-42.269122		1.316390		7.872245		6.933034		5.366556		-9.062225		3.586263		-23.471967		-19.621253		40.457377		121.775602		-20.804028		-10.238851		-35.108415		-13.645774		-17.917482		-16.370609		52.778963		149.200831		-27.691006		-2.717050		-31.088765		
4.387298		-0.542586		3.884625		92.402061		-0.021842		0.596520		0.508827		65.520499		-2.579111		-0.550446		-104.030235		2.926028		-4.490061		33.378949		62.562877		-6.077897		-1.409464		-105.360905		24.752043		2.032735		23.722917		-43.056934		0.855959		7.788498		8.451298		5.678116		-9.273642		5.476729		-23.658819		-18.965327		40.832324		121.817558		-21.146988		-10.481349		-35.269898		-11.345929		-18.094200		-15.739107		53.454621		149.466801		-28.145688		-2.781275		-31.151954		
4.389924		-0.618258		4.264780		92.380917		-0.021485		0.590309		0.507422		66.304173		-2.486400		-0.199847		-105.766667		2.826485		-4.237697		33.382800		63.199932		-6.009441		-1.047135		-107.060993		24.730730		2.065261		23.728664		-43.900429		0.674007		7.691423		8.627588		5.823335		-9.341372		7.218026		-23.732752		-18.681082		41.510919		121.858013		-21.268097		-10.687764		-35.323838		-9.239339		-18.056483		-15.433428		54.303780		149.561724		-28.319358		-2.920155		-31.176817		
4.392551		-0.853054		4.512855		92.303552		-0.020791		0.584589		0.506204		67.261872		-2.381224		0.256502		-107.398989		3.247124		-3.082715		33.391259		63.915593		-5.860489		-0.670176		-108.509878		23.774157		2.787755		23.695401		-44.851083		0.206277		7.534999		10.197661		6.230179		-9.557020		9.241786		-23.932822		-17.753601		41.774341		121.928670		-21.674551		-10.909312		-35.547899		-6.976340		-18.288266		-14.735759		55.069998		149.782307		-28.855398		-3.025528		-31.233187		
4.395177		-0.913363		4.932007		92.284447		-0.020384		0.578640		0.504733		67.954442		-2.294277		0.603434		-109.023907		3.253177		-2.648906		33.392524		64.480598		-5.816043		-0.285823		-110.138748		23.774980		2.918536		23.720834		-45.706676		0.035981		7.400333		10.322050		6.390405		-9.611166		11.017608		-23.958492		-17.398629		42.447755		121.969328		-21.813780		-11.106470		-35.619747		-4.903655		-18.237649		-14.444449		55.951917		149.859478		-29.054675		-3.172294		-31.254954		
4.397803		-1.137451		5.289784		92.242850		-0.019676		0.573434		0.503497		68.721846		-2.229657		0.977184		-110.522566		3.902008		-0.904524		33.394081		65.018060		-5.708758		0.068266		-111.460959		22.876854		3.965991		23.756252		-46.745494		-0.401464		7.112881		11.678498		6.852157		-9.774935		13.186235		-24.139091		-16.243159		42.624805		122.003221		-22.273724		-11.272206		-35.896025		-2.720094		-18.505241		-13.776032		56.810433		150.073046		-29.697529		-3.304180		-31.296361		
4.400429		-1.344713		5.743927		92.262395		-0.019330		0.568071		0.502144		69.348334		-2.272390		1.368583		-112.027645		4.385134		0.547428		33.391961		65.446061		-5.578521		0.371825		-112.863754		22.609455		4.709653		23.865039		-47.724541		-0.696548		6.740266		12.160554		7.200594		-9.829756		15.204111		-24.212020		-15.279849		43.074125		121.910135		-22.831638		-11.438073		-36.199668		-0.693520		-18.556608		-13.400965		57.753009		150.202902		-30.399090		-3.337620		-31.306547		
4.403056		-1.402830		6.095549		92.281205		-0.018849		0.562448		0.500785		70.026991		-2.258454		1.683501		-113.459393		4.518590		1.176174		33.387637		66.023070		-5.618017		0.678537		-114.273866		22.519468		5.069348		23.976017		-48.511066		-0.850416		6.506840		12.308222		7.368574		-9.816288		17.101284		-24.211973		-14.678398		43.652096		121.841495		-23.024747		-11.589616		-36.299669		1.358281		-18.531259		-13.147488		58.660440		150.342900		-30.726954		-3.457413		-31.259814		
4.405682		-1.605550		6.385955		92.338091		-0.018482		0.557216		0.499637		70.773446		-2.359494		2.019914		-114.821019		5.046749		2.879409		33.373169		66.603994		-5.545237		0.945040		-115.487726		21.898610		6.274555		24.284412		-49.351751		-1.136125		6.000177		13.012173		7.750977		-9.761407		19.364475		-24.330259		-13.205456		43.844763		121.522510		-23.552839		-11.667678		-36.574683		3.352673		-18.678183		-12.749394		59.586218		150.684435		-31.582559		-3.484811		-31.077381		
4.408308		-1.622215		6.558926		92.326976		-0.017865		0.551802		0.498493		71.545124		-2.305973		2.285143		-116.064200		4.948000		3.555788		33.365346		67.315891		-5.658897		1.276036		-116.712633		21.531182		6.726597		24.444883		-49.984448		-1.287006		5.817773		13.463833		7.825408		-9.712682		21.439984		-24.334191		-12.499147		44.192430		121.420491		-23.514394		-11.759214		-36.547512		5.492318		-18.815643		-12.261034		60.418649		150.967886		-31.744501		-3.711265		-30.908900		
4.410934		-1.636808		6.742741		92.356959		-0.017372		0.546350		0.497424		72.298645		-2.319148		2.537328		-117.281199		4.940053		4.231823		33.358529		68.019812		-5.759167		1.568950		-117.908152		21.154783		7.237568		24.599343		-50.613064		-1.404229		5.614428		13.706643		8.006102		-9.723282		23.367927		-24.353979		-11.816250		44.757647		121.390103		-23.509659		-11.934791		-36.524496		7.582823		-18.825958		-11.926150		61.341585		151.199873		-31.994344		-3.884864		-30.808352		
4.413561		-1.642672		6.882930		92.407444		-0.016937		0.540939		0.496409		73.062109		-2.367034		2.774185		-118.440096		4.868470		4.901111		33.354199		68.736020		-5.859919		1.844299		-119.044045		20.871195		7.701459		24.734645		-51.181901		-1.484287		5.414939		13.948679		8.114840		-9.707216		25.314776		-24.353161		-11.192354		45.287165		121.407974		-23.417253		-12.080447		-36.457537		9.706497		-18.859127		-11.512046		62.216639		151.420124		-32.161651		-4.064798		-30.731573		
4.416187		-1.668878		6.976631		92.461830		-0.016573		0.535633		0.495385		73.844543		-2.465792		3.010059		-119.546106		4.794557		5.740502		33.348995		69.495614		-5.946726		2.124204		-120.135728		20.470075		8.306436		24.899568		-51.707627		-1.568004		5.187204		14.296828		8.237993		-9.683027		27.310615		-24.355279		-10.421830		45.744717		121.424139		-23.287565		-12.215692		-36.368198		11.834364		-18.919977		-11.019034		63.062295		151.680819		-32.352341		-4.240293		-30.631286		
4.418813		-1.773060		7.020212		92.680460		-0.016690		0.530019		0.494363		74.720829		-2.790711		3.295697		-120.699995		5.022535		6.903140		33.339913		70.323115		-5.801044		2.376546		-121.247807		20.098177		9.221931		25.362300		-52.121095		-1.544174		4.679027		14.337921		8.417801		-9.531913		29.343192		-24.411711		-9.186879		46.206904		121.276985		-23.320673		-12.304383		-36.248769		13.806267		-18.967687		-10.590293		63.931160		151.909038		-32.980851		-4.026658		-30.395493		
